<?xml version="1.0" encoding="UTF-8"?>
<svg version="1.1" xmlns="http://www.w3.org/2000/svg" width="256" height="256">
<path d="M0 0 C84.48 0 168.96 0 256 0 C256 84.48 256 168.96 256 256 C171.52 256 87.04 256 0 256 C0 171.52 0 87.04 0 0 Z " fill="#FAF7F0" transform="translate(0,0)"/>
<path d="M0 0 C0.87720703 -0.020625 1.75441406 -0.04125 2.65820312 -0.0625 C10.23105963 -0.1071447 17.93405768 0.93228039 24.125 5.625 C26.62929139 8.32192919 27.35557678 9.62884358 27.5625 13.25 C24.8125 13.625 24.8125 13.625 21.5625 13.25 C20.2184907 11.25715862 18.88708708 9.25580329 17.5625 7.25 C14.68927801 5.31619668 11.67872251 3.7548425 8.5625 2.25 C8.5625 2.91 8.5625 3.57 8.5625 4.25 C11.0375 5.24 11.0375 5.24 13.5625 6.25 C13.5625 6.58 13.5625 6.91 13.5625 7.25 C11.2525 6.92 8.9425 6.59 6.5625 6.25 C6.8925 7.24 7.2225 8.23 7.5625 9.25 C6.625 12.4375 6.625 12.4375 5.5625 15.25 C4.9025 15.25 4.2425 15.25 3.5625 15.25 C3.2325 16.57 2.9025 17.89 2.5625 19.25 C6.47853304 16.45579508 6.47853304 16.45579508 8.5625 12.25 C9.5525 12.25 10.5425 12.25 11.5625 12.25 C11.5625 13.24 11.5625 14.23 11.5625 15.25 C15.17485934 16.41556422 18.41930531 16.21707118 22.1875 16.0625 C28.81119397 15.98628595 33.70681345 17.22771017 39.5625 20.25 C39.5625 20.91 39.5625 21.57 39.5625 22.25 C40.160625 22.4975 40.75875 22.745 41.375 23 C44.09184654 24.55248374 45.17927567 25.41075005 46.5625 28.25 C46.50977563 31.3027413 46.09510705 34.24686629 45.5625 37.25 C44.5725 37.25 43.5825 37.25 42.5625 37.25 C42.0675 35.5484375 42.0675 35.5484375 41.5625 33.8125 C39.14928449 27.39632038 34.62742818 21.81373887 28.5 18.6875 C21.82350764 17.6931288 17.49951748 18.22328521 11.5625 21.25 C10.9025 21.91 10.2425 22.57 9.5625 23.25 C10.2225 23.58 10.8825 23.91 11.5625 24.25 C11.2325 25.9 10.9025 27.55 10.5625 29.25 C9.2425 29.25 7.9225 29.25 6.5625 29.25 C6.5625 30.24 6.5625 31.23 6.5625 32.25 C13.40196499 30.05368512 13.40196499 30.05368512 18.5625 25.25 C19.81686187 22.61777038 19.81686187 22.61777038 20.5625 20.25 C22.8725 20.25 25.1825 20.25 27.5625 20.25 C27.19005846 26.39528536 22.68483071 30.12766929 18.5625 34.25 C18.0675 35.24 18.0675 35.24 17.5625 36.25 C18.3875 36.29125 19.2125 36.3325 20.0625 36.375 C26.0926549 37.88253872 30.13550641 41.53760769 34.0625 46.25 C35.7121871 49.54937419 35.90904062 51.61132348 35.5625 55.25 C36.119375 55.4975 36.67625 55.745 37.25 56 C41.52641937 58.31157804 44.76338295 60.66385789 46.5625 65.25 C47.45765939 72.62986057 47.16161029 78.31956831 42.5625 84.25 C37.45011692 89.36238308 32.97415826 90.9030517 25.875 91.625 C15.97663298 91.29889101 7.67744938 86.85351539 0.5625 80.25 C-0.7059375 79.074375 -0.7059375 79.074375 -2 77.875 C-4.09725739 74.04522563 -3.77267097 70.52342988 -3.4375 66.25 C-4.4275 66.745 -4.4275 66.745 -5.4375 67.25 C-5.4375 56.69 -5.4375 46.13 -5.4375 35.25 C-6.7575 35.25 -8.0775 35.25 -9.4375 35.25 C-9.4375 47.79 -9.4375 60.33 -9.4375 73.25 C-8.4475 73.58 -7.4575 73.91 -6.4375 74.25 C-11.0575 74.25 -15.6775 74.25 -20.4375 74.25 C-19.7775 72.93 -19.1175 71.61 -18.4375 70.25 C-18.14121838 67.19858286 -18.14121838 67.19858286 -18.19458008 63.78491211 C-18.18996513 61.81783546 -18.18996513 61.81783546 -18.18525696 59.8110199 C-18.19215461 58.38312606 -18.19942157 56.95523397 -18.20703125 55.52734375 C-18.20822386 54.06051168 -18.20867604 52.59367884 -18.2084198 51.12684631 C-18.20998234 48.05611372 -18.21825498 44.9854981 -18.23168945 41.91479492 C-18.24869391 37.97821124 -18.25250321 34.04175584 -18.25174427 30.10513973 C-18.25201613 27.07771073 -18.25749959 24.05030977 -18.26474571 21.02289009 C-18.26792798 19.57121556 -18.26989876 18.11953786 -18.27063942 16.66786003 C-18.27280677 14.64045952 -18.28234942 12.61307092 -18.29223633 10.58569336 C-18.29604813 9.4319371 -18.29985992 8.27818085 -18.30378723 7.08946228 C-18.31247296 4.17299305 -18.31247296 4.17299305 -19.4375 1.25 C-12.93318888 0.43118317 -6.55383597 0.03835456 0 0 Z " fill="#F3F2E9" transform="translate(122.4375,92.75)"/>
<path d="M0 0 C20.79 0 41.58 0 63 0 C63.88747193 3.54988771 64.10545467 6.14180778 64.0625 9.75 C64.05347656 10.73484375 64.04445313 11.7196875 64.03515625 12.734375 C64.02355469 13.48203125 64.01195312 14.2296875 64 15 C62.17469566 13.23125438 60.68966098 11.57194618 59.1875 9.5 C55.20885149 4.95297314 50.81106223 3.79265658 45 3 C42.69204589 2.85825987 40.38150654 2.75517941 38.0703125 2.68359375 C36.90773926 2.64548584 35.74516602 2.60737793 34.54736328 2.56811523 C33.0879834 2.52501221 31.62860352 2.48190918 30.125 2.4375 C25.46375 2.293125 20.8025 2.14875 16 2 C16 15.2 16 28.4 16 42 C18.31 42 20.62 42 23 42 C23 42.66 23 43.32 23 44 C20.69 44 18.38 44 16 44 C16.33 59.18 16.66 74.36 17 90 C18.32 90.66 19.64 91.32 21 92 C21 92.66 21 93.32 21 94 C14.07 94 7.14 94 0 94 C0.66 92.68 1.32 91.36 2 90 C4.13628781 85.6732234 4.27311997 81.73430657 4.22705078 76.99682617 C4.22734283 76.20605682 4.22763489 75.41528748 4.22793579 74.60055542 C4.2265472 71.99791325 4.21100829 69.39556065 4.1953125 66.79296875 C4.19158069 64.9840765 4.18873451 63.17518223 4.18673706 61.36628723 C4.1791138 56.61351913 4.15947654 51.86087395 4.1373291 47.1081543 C4.11684251 42.25506249 4.10772933 37.40195075 4.09765625 32.54882812 C4.07622942 23.03249818 4.04210924 13.51625933 4 4 C2.68 3.34 1.36 2.68 0 2 C0 1.34 0 0.68 0 0 Z " fill="#333827" transform="translate(79,72)"/>
<path d="M0 0 C0.66 0.33 1.32 0.66 2 1 C0.515 2.485 0.515 2.485 -1 4 C-0.34 4.33 0.32 4.66 1 5 C0.67 6.65 0.34 8.3 0 10 C-1.32 10 -2.64 10 -4 10 C-4 10.99 -4 11.98 -4 13 C2.83946499 10.80368512 2.83946499 10.80368512 8 6 C9.25436187 3.36777038 9.25436187 3.36777038 10 1 C12.31 1 14.62 1 17 1 C16.62755846 7.14528536 12.12233071 10.87766929 8 15 C7.67 15.66 7.34 16.32 7 17 C8.2375 17.061875 8.2375 17.061875 9.5 17.125 C15.5301549 18.63253872 19.57300641 22.28760769 23.5 27 C25.1496871 30.29937419 25.34654062 32.36132348 25 36 C25.556875 36.2475 26.11375 36.495 26.6875 36.75 C30.96391937 39.06157804 34.20088295 41.41385789 36 46 C36.89515939 53.37986057 36.59911029 59.06956831 32 65 C26.88761692 70.11238308 22.41165826 71.6530517 15.3125 72.375 C5.39375499 72.04821964 -2.85605951 67.58746513 -10 61 C-10.886875 60.236875 -11.77375 59.47375 -12.6875 58.6875 C-14.79591354 54.37027228 -13.2838743 50.46753556 -12 46 C-11.34 46 -10.68 46 -10 46 C-9.67 47.98 -9.34 49.96 -9 52 C-8.34 52 -7.68 52 -7 52 C-6.09913291 53.35130064 -5.20321056 54.70608126 -4.328125 56.07421875 C-0.99328842 60.90973179 2.66753091 65.73235375 7.875 68.5625 C15.11821729 69.57655042 20.79908699 69.67752065 27.40625 66.265625 C29.38968856 64.69054144 30.10272676 63.35917209 31 61 C31.43878644 55.47129084 31.29251127 52.60951578 28 48 C27.67 47.01 27.34 46.02 27 45 C24.81588325 43.91682573 24.81588325 43.91682573 22 43 C-2.04616124 33.21106862 -2.04616124 33.21106862 -5.2578125 26.2890625 C-5.50273438 25.53367188 -5.74765625 24.77828125 -6 24 C-6.66 24 -7.32 24 -8 24 C-9.7803896 18.6588312 -9.48613794 13.59345212 -7.875 8.3125 C-5.66690181 4.41152652 -3.58276123 2.62735824 0 0 Z " fill="#3A3F2F" transform="translate(133,112)"/>
<path d="M0 0 C1.92386845 0.88026056 3.83885958 1.77993691 5.75 2.6875 C7.35101563 3.43580078 7.35101563 3.43580078 8.984375 4.19921875 C13.19912736 6.71605922 15.44935405 9.34806214 17 14 C17.26193374 18.05997304 17.38705576 20.93559667 16 24.75 C12.54555533 28.63625025 8.66085979 30.62581659 3.5 31.3515625 C-1.73656846 31.52717913 -6.68425107 31.19618226 -11 28 C-21.35132788 18.08126493 -21.35132788 18.08126493 -22 13 C-22.66 13 -23.32 13 -24 13 C-24.33 11.68 -24.66 10.36 -25 9 C-24.01 9 -23.02 9 -22 9 C-22 9.66 -22 10.32 -22 11 C-20.329375 10.9690625 -20.329375 10.9690625 -18.625 10.9375 C-15 11 -15 11 -13 12 C-12.01 12.33 -11.02 12.66 -10 13 C-10 13.33 -10 13.66 -10 14 C-2.6225444 11.81053179 -2.6225444 11.81053179 4 8 C4.33 7.01 4.66 6.02 5 5 C4.34 5 3.68 5 3 5 C3 4.34 3 3.68 3 3 C0.00667261 3.9977758 -0.94766315 4.7522025 -3 7 C-3 5.68 -3 4.36 -3 3 C-2.01 2.67 -1.02 2.34 0 2 C0 1.34 0 0.68 0 0 Z " fill="#F5F3EB" transform="translate(148,151)"/>
<path d="M0 0 C2.97 0 5.94 0 9 0 C9 10.56 9 21.12 9 32 C12.3 32 15.6 32 19 32 C19 32.33 19 32.66 19 33 C15.7 33 12.4 33 9 33 C9 45.87 9 58.74 9 72 C10.32 72.33 11.64 72.66 13 73 C8.38 73 3.76 73 -1 73 C-0.34 71.68 0.32 70.36 1 69 C1.29628162 65.94858286 1.29628162 65.94858286 1.24291992 62.53491211 C1.24753487 60.56783546 1.24753487 60.56783546 1.25224304 58.5610199 C1.24534539 57.13312606 1.23807843 55.70523397 1.23046875 54.27734375 C1.22927614 52.81051168 1.22882396 51.34367884 1.2290802 49.87684631 C1.22751766 46.80611372 1.21924502 43.7354981 1.20581055 40.66479492 C1.18880609 36.72821124 1.18499679 32.79175584 1.18575573 28.85513973 C1.18548387 25.82771073 1.18000041 22.80030977 1.17275429 19.77289009 C1.16957202 18.32121556 1.16760124 16.86953786 1.16686058 15.41786003 C1.16469323 13.39045952 1.15515058 11.36307092 1.14526367 9.33569336 C1.14145187 8.1819371 1.13764008 7.02818085 1.13371277 5.83946228 C1.12502704 2.92299305 1.12502704 2.92299305 0 0 Z " fill="#313726" transform="translate(103,94)"/>
<path d="M0 0 C4.91581228 3.34693602 9.6642806 8.66736368 11.8359375 14.25 C11.4609375 17.5 11.4609375 17.5 10.8359375 20.25 C9.8459375 20.25 8.8559375 20.25 7.8359375 20.25 C7.1759375 19.59 6.5159375 18.93 5.8359375 18.25 C3.76719716 17.6074765 3.76719716 17.6074765 1.8359375 17.25 C2.1659375 19.23 2.4959375 21.21 2.8359375 23.25 C-1.68008479 22.09885706 -5.22153485 20.70076043 -9.1640625 18.25 C-11.35536784 17.55420546 -11.35536784 17.55420546 -13.1640625 17.25 C-13.1640625 15.93 -13.1640625 14.61 -13.1640625 13.25 C-12.1740625 12.92 -11.1840625 12.59 -10.1640625 12.25 C-8.537701 10.76136515 -8.537701 10.76136515 -7.0390625 8.9375 C-6.52085937 8.34324219 -6.00265625 7.74898437 -5.46875 7.13671875 C-4.09899125 5.15589997 -3.58993379 3.60267921 -3.1640625 1.25 C-5.4740625 1.25 -7.7840625 1.25 -10.1640625 1.25 C-10.2259375 1.971875 -10.2878125 2.69375 -10.3515625 3.4375 C-11.43630793 7.19238801 -13.19619215 8.75429084 -16.1640625 11.25 C-19.15357873 12.74475812 -20.8109814 13.25 -24.1640625 13.25 C-24.1640625 12.26 -24.1640625 11.27 -24.1640625 10.25 C-22.8440625 9.92 -21.5240625 9.59 -20.1640625 9.25 C-19.8340625 7.93 -19.5040625 6.61 -19.1640625 5.25 C-20.1540625 4.92 -21.1440625 4.59 -22.1640625 4.25 C-16.44418281 -2.34986118 -7.94739798 -3.73995199 0 0 Z " fill="#F4F3EA" transform="translate(153.1640625,111.75)"/>
<path d="M0 0 C2.31 0 4.62 0 7 0 C6.62755846 6.14528536 2.12233071 9.87766929 -2 14 C-2.33 14.66 -2.66 15.32 -3 16 C-1.7625 16.061875 -1.7625 16.061875 -0.5 16.125 C5.55010174 17.63752544 9.60716656 21.29377903 13.5 26.0625 C15.03041884 29.05957022 15.38876006 30.69553951 15 34 C9.55123997 32.27933894 4.28830549 30.15294651 -1 28 C-1 27.34 -1 26.68 -1 26 C-1.86625 25.814375 -2.7325 25.62875 -3.625 25.4375 C-8.64634376 23.29877951 -11.39406644 19.63457075 -14.1953125 15.0390625 C-15.56565496 11.56664132 -14.60419399 8.62516397 -14 5 C-12.35 4.67 -10.7 4.34 -9 4 C-9.33 5.65 -9.66 7.3 -10 9 C-11.32 9 -12.64 9 -14 9 C-14 9.99 -14 10.98 -14 12 C-7.16053501 9.80368512 -7.16053501 9.80368512 -2 5 C-0.74563813 2.36777038 -0.74563813 2.36777038 0 0 Z " fill="#F0EFE7" transform="translate(143,113)"/>
<path d="M0 0 C3.25875 -0.061875 6.5175 -0.12375 9.875 -0.1875 C10.88030762 -0.21481201 11.88561523 -0.24212402 12.92138672 -0.27026367 C20.58791671 -0.33966092 28.28542782 0.62425627 34.5625 5.375 C37.06679139 8.07192919 37.79307678 9.37884358 38 13 C35.25 13.375 35.25 13.375 32 13 C30.6559907 11.00715862 29.32458708 9.00580329 28 7 C25.12677801 5.06619668 22.11622251 3.5048425 19 2 C19 2.66 19 3.32 19 4 C20.65 4.66 22.3 5.32 24 6 C24 6.33 24 6.66 24 7 C21.69 6.67 19.38 6.34 17 6 C17.33 6.99 17.66 7.98 18 9 C17.0625 12.1875 17.0625 12.1875 16 15 C15.34 15 14.68 15 14 15 C13.67 16.32 13.34 17.64 13 19 C16.91603304 16.20579508 16.91603304 16.20579508 19 12 C19.99 12 20.98 12 22 12 C21.9375 14.1875 21.9375 14.1875 21 17 C19.28561215 18.48271382 17.51127281 19.68040829 15.59375 20.88671875 C13.83938228 21.92360931 13.83938228 21.92360931 13 24 C9.7 23.67 6.4 23.34 3 23 C3 22.01 3 21.02 3 20 C3.99 19.67 4.98 19.34 6 19 C6.06058594 17.85660156 6.12117188 16.71320313 6.18359375 15.53515625 C6.26798428 14.04425695 6.35263302 12.55337225 6.4375 11.0625 C6.47681641 10.30775391 6.51613281 9.55300781 6.55664062 8.77539062 C6.88671875 3.11328125 6.88671875 3.11328125 8 2 C5.69 2 3.38 2 1 2 C1 12.23 1 22.46 1 33 C0.67 33 0.34 33 0 33 C0 22.11 0 11.22 0 0 Z " fill="#E2E0D8" transform="translate(112,93)"/>
<path d="M0 0 C-0.33 0.66 -0.66 1.32 -1 2 C-1.2322646 4.71262116 -1.41936235 7.40773126 -1.5625 10.125 C-1.60568359 10.87910156 -1.64886719 11.63320312 -1.69335938 12.41015625 C-1.7994832 14.27321888 -1.90025001 16.13658524 -2 18 C-3.32 18.33 -4.64 18.66 -6 19 C-6 20.32 -6 21.64 -6 23 C-5.21625 23.0825 -4.4325 23.165 -3.625 23.25 C-1 24 -1 24 0.3125 26.0625 C0.539375 26.701875 0.76625 27.34125 1 28 C0.67 28.33 0.34 28.66 0 29 C0.66 29.33 1.32 29.66 2 30 C2 30.66 2 31.32 2 32 C-1.3 32 -4.6 32 -8 32 C-8 21.77 -8 11.54 -8 1 C-5.07175348 0.02391783 -3.04386724 -0.08226668 0 0 Z " fill="#F9F7EF" transform="translate(121,94)"/>
<path d="M0 0 C0.66 0 1.32 0 2 0 C2.33 1.98 2.66 3.96 3 6 C3.66 6 4.32 6 5 6 C5.90086709 7.35130064 6.79678944 8.70608126 7.671875 10.07421875 C11.00671158 14.90973179 14.66753091 19.73235375 19.875 22.5625 C27.05078165 23.56710943 32.60120541 23.83927676 39 20 C39.66 20 40.32 20 41 20 C41 20.66 41 21.32 41 22 C32.65006874 26.3647368 26.15373714 27.14749935 17.0625 24.4375 C11.08036147 22.30480333 6.64362788 19.28191371 2 15 C0.6696875 13.8553125 0.6696875 13.8553125 -0.6875 12.6875 C-2.79591354 8.37027228 -1.2838743 4.46753556 0 0 Z " fill="#717166" transform="translate(121,158)"/>
<path d="M0 0 C1.625 1.3125 1.625 1.3125 2.375 3.9375 C2.49875 5.113125 2.49875 5.113125 2.625 6.3125 C1.635 6.8075 1.635 6.8075 0.625 7.3125 C-0.49134152 8.96301288 -0.49134152 8.96301288 -1.5 10.875 C-2.11875 12.009375 -2.7375 13.14375 -3.375 14.3125 C-4.035 13.9825 -4.695 13.6525 -5.375 13.3125 C-5.375 12.3225 -5.375 11.3325 -5.375 10.3125 C-4.04166667 8.97916667 -2.70833333 7.64583333 -1.375 6.3125 C-0.5877322 4.1743034 -0.5877322 4.1743034 -0.375 2.3125 C-2.685 2.3125 -4.995 2.3125 -7.375 2.3125 C-7.436875 3.034375 -7.49875 3.75625 -7.5625 4.5 C-8.64724543 8.25488801 -10.40712965 9.81679084 -13.375 12.3125 C-16.36451623 13.80725812 -18.0219189 14.3125 -21.375 14.3125 C-21.375 13.3225 -21.375 12.3325 -21.375 11.3125 C-20.055 10.9825 -18.735 10.6525 -17.375 10.3125 C-17.045 8.9925 -16.715 7.6725 -16.375 6.3125 C-17.365 5.9825 -18.355 5.6525 -19.375 5.3125 C-14.27974622 -0.56663898 -7.50033696 -2.17115017 0 0 Z " fill="#EFF0E5" transform="translate(150.375,110.6875)"/>
<path d="M0 0 C3.52530726 1.01160991 6.74364265 2.31929943 10 4 C10 4.66 10 5.32 10 6 C10.598125 6.2475 11.19625 6.495 11.8125 6.75 C14.52934654 8.30248374 15.61677567 9.16075005 17 12 C16.94727563 15.0527413 16.53260705 17.99686629 16 21 C15.01 21 14.02 21 13 21 C12.67 19.865625 12.34 18.73125 12 17.5625 C9.58678449 11.14632038 5.06492818 5.56373887 -1.0625 2.4375 C-6.56137158 1.61851913 -11.55844409 1.93823299 -17 3 C-13.1362741 -2.22087693 -5.77611796 -0.58313624 0 0 Z " fill="#404236" transform="translate(152,109)"/>
<path d="M0 0 C0.33 0 0.66 0 1 0 C1 7.26 1 14.52 1 22 C4.3 22 7.6 22 11 22 C11 22.33 11 22.66 11 23 C7.7 23 4.4 23 1 23 C1 35.87 1 48.74 1 62 C2.32 62.33 3.64 62.66 5 63 C0.38 63 -4.24 63 -9 63 C-8.01 61.35 -7.02 59.7 -6 58 C-5.34 58 -4.68 58 -4 58 C-4 58.66 -4 59.32 -4 60 C-3.34 60 -2.68 60 -2 60 C-2 59.34 -2 58.68 -2 58 C-1.34 58 -0.68 58 0 58 C0 38.86 0 19.72 0 0 Z " fill="#383C2D" transform="translate(111,104)"/>
<path d="M0 0 C1.26328125 0.02707031 2.5265625 0.05414063 3.828125 0.08203125 C4.79234375 0.11683594 5.7565625 0.15164062 6.75 0.1875 C7.75109515 3.49820838 7.85356134 6.48834769 7.8125 9.9375 C7.80347656 10.92234375 7.79445312 11.9071875 7.78515625 12.921875 C7.77355469 13.66953125 7.76195312 14.4171875 7.75 15.1875 C5.92469566 13.41875438 4.43966098 11.75944618 2.9375 9.6875 C-0.9960871 5.19197189 -5.44100808 3.87904666 -11.25 3.1875 C-7.67487951 -0.25219926 -4.83224625 -0.13422906 0 0 Z " fill="#323428" transform="translate(135.25,71.8125)"/>
<path d="M0 0 C0.66 0.33 1.32 0.66 2 1 C1.195625 1.66 0.39125 2.32 -0.4375 3 C-2.97795122 5.97418679 -3.97910156 7.88534673 -4.28515625 11.796875 C-3.73453173 16.05101514 -1.347237 19.49132739 1 23 C-0.32 23.33 -1.64 23.66 -3 24 C-3.33 22.68 -3.66 21.36 -4 20 C-6.33075929 20.95865509 -6.33075929 20.95865509 -8 24 C-9.7803896 18.6588312 -9.48613794 13.59345212 -7.875 8.3125 C-5.66690181 4.41152652 -3.58276123 2.62735824 0 0 Z " fill="#4A4B3F" transform="translate(133,112)"/>
<path d="M0 0 C9.08767434 0.81139949 16.81223809 2.85236367 23 10 C24.4375 13.375 24.4375 13.375 25 16 C22.05678651 15.36931139 19.54017963 14.63882557 17 13 C16.566875 12.21625 16.13375 11.4325 15.6875 10.625 C12.29390523 5.3460748 5.63499409 3.29999759 0 1 C0 0.67 0 0.34 0 0 Z " fill="#46473D" transform="translate(132,127)"/>
<path d="M0 0 C0.66 0 1.32 0 2 0 C2.33 1.98 2.66 3.96 3 6 C3.66 6 4.32 6 5 6 C5.67154933 7.28913487 6.33708859 8.58140204 7 9.875 C7.37125 10.59429687 7.7425 11.31359375 8.125 12.0546875 C9 14 9 14 9 16 C6.3125 16.375 6.3125 16.375 3 16 C-0.87033353 12.93598596 -0.87033353 12.93598596 -2 10 C-1.81817253 6.50891254 -1.03348711 3.33085656 0 0 Z " fill="#393C2E" transform="translate(121,158)"/>
<path d="M0 0 C2.31 0 4.62 0 7 0 C6.71161525 3.36448872 6.04879887 4.93789234 3.9375 7.625 C-0.72557191 11.39514325 -5.00904477 13 -11 13 C-11 12.34 -11 11.68 -11 11 C-10.2575 10.7525 -9.515 10.505 -8.75 10.25 C-4.68565163 8.40256892 -2.59743108 6.31434837 -0.75 2.25 C-0.5025 1.5075 -0.255 0.765 0 0 Z " fill="#45473B" transform="translate(143,113)"/>
<path d="M0 0 C0.99 0 1.98 0 3 0 C3.226875 0.639375 3.45375 1.27875 3.6875 1.9375 C4.120625 2.618125 4.55375 3.29875 5 4 C6.66500443 4.34153937 8.33178677 4.67449498 10 5 C11.8125 7.0625 11.8125 7.0625 13 9 C12.34 9 11.68 9 11 9 C11 9.66 11 10.32 11 11 C11.66 11.33 12.32 11.66 13 12 C10.3125 12.75 10.3125 12.75 7 13 C3.57938126 10.90098395 1.28109574 8.84328722 0 5 C-0.125 2.25 -0.125 2.25 0 0 Z " fill="#3C4030" transform="translate(126,131)"/>
<path d="M0 0 C3.0831351 1.19899698 6.06279492 2.47700477 9 4 C8.34 4.66 7.68 5.32 7 6 C7 6.99 7 7.98 7 9 C6.01 9.33 5.02 9.66 4 10 C3.67 10.66 3.34 11.32 3 12 C3 11.34 3 10.68 3 10 C2.01 10 1.02 10 0 10 C-0.103125 10.598125 -0.20625 11.19625 -0.3125 11.8125 C-1.09824033 14.31258286 -1.96918853 15.37535082 -4 17 C-4.66 17 -5.32 17 -6 17 C-5.67 15.68 -5.34 14.36 -5 13 C-4.34 13 -3.68 13 -3 13 C-3.020625 12.071875 -3.04125 11.14375 -3.0625 10.1875 C-3 7 -3 7 -2 4 C-0.02 4 1.96 4 4 4 C2.68 3.34 1.36 2.68 0 2 C0 1.34 0 0.68 0 0 Z " fill="#F0EFE6" transform="translate(131,95)"/>
<path d="M0 0 C2.64 0 5.28 0 8 0 C6.515 1.98 6.515 1.98 5 4 C4.67 3.67 4.34 3.34 4 3 C3.67 24.12 3.34 45.24 3 67 C2.67 67 2.34 67 2 67 C1.98969254 66.20486496 1.97938507 65.40972992 1.96876526 64.59049988 C1.87082912 57.10084256 1.76832019 49.61126847 1.66066074 42.12174511 C1.60547233 38.27121518 1.55205887 34.42067759 1.50268555 30.57006836 C1.45498176 26.85473844 1.40263679 23.13950036 1.34705925 19.42428017 C1.32666295 18.00611976 1.30794537 16.58793419 1.29092598 15.16972923 C1.26682194 13.18495279 1.2362214 11.20025845 1.20532227 9.21557617 C1.18977798 8.08528488 1.1742337 6.95499359 1.15821838 5.79045105 C1.11747033 2.91571658 1.11747033 2.91571658 0 0 Z " fill="#383A2D" transform="translate(103,94)"/>
<path d="M0 0 C0.99 0 1.98 0 3 0 C3 0.66 3 1.32 3 2 C3.66 2 4.32 2 5 2 C4.765625 3.83203125 4.765625 3.83203125 4 6 C2.109375 7.44921875 2.109375 7.44921875 -0.25 8.6875 C-1.01828125 9.10386719 -1.7865625 9.52023438 -2.578125 9.94921875 C-7.37691361 12.03127381 -11.81179891 12.10172943 -17 12 C-17 11.67 -17 11.34 -17 11 C-15.96875 10.7525 -14.9375 10.505 -13.875 10.25 C-8.80194243 8.78445003 -5.11995073 6.40793807 -1.8125 2.25 C-1.214375 1.5075 -0.61625 0.765 0 0 Z " fill="#4E4F44" transform="translate(148,154)"/>
<path d="M0 0 C7.56530047 0.62632117 13.33450615 1.49188098 19 7 C19.8125 9.75 19.8125 9.75 20 12 C17.25 12.375 17.25 12.375 14 12 C13.07571135 10.58055671 12.16126536 9.15147722 11.34375 7.66796875 C8.5513333 4.20180034 4.00626047 2.72789096 0 1 C0 0.67 0 0.34 0 0 Z " fill="#424437" transform="translate(130,94)"/>
<path d="M0 0 C-2.25498305 2.34171316 -4.40520616 4.28943297 -7.0625 6.1875 C-10.89842462 9.2756621 -11.84870744 13.3645326 -13 18 C-13.66 17.67 -14.32 17.34 -15 17 C-14.67 16.34 -14.34 15.68 -14 15 C-14.99 14.67 -15.98 14.34 -17 14 C-17 12.68 -17 11.36 -17 10 C-19.475 9.01 -19.475 9.01 -22 8 C-22 7.67 -22 7.34 -22 7 C-18.7 7.33 -15.4 7.66 -12 8 C-11.34 6.68 -10.68 5.36 -10 4 C-8.37890625 2.48046875 -8.37890625 2.48046875 -6.5625 1.1875 C-5.66724609 0.52814453 -5.66724609 0.52814453 -4.75390625 -0.14453125 C-3 -1 -3 -1 0 0 Z " fill="#EFF0E5" transform="translate(137,109)"/>
<path d="M0 0 C1.32 0.33 2.64 0.66 4 1 C4 1.66 4 2.32 4 3 C6.64 3.66 9.28 4.32 12 5 C11.67 5.66 11.34 6.32 11 7 C10.0409375 7.2165625 10.0409375 7.2165625 9.0625 7.4375 C6.61789145 7.86165035 6.61789145 7.86165035 5 11 C1.54074837 9.7508258 -1.14693203 8.32472205 -4 6 C-3.34 5.34 -2.68 4.68 -2 4 C-1.30251417 2.68252676 -0.63040043 1.35085807 0 0 Z " fill="#3F4536" transform="translate(138,138)"/>
<path d="M0 0 C1.32 0 2.64 0 4 0 C3.67 1.65 3.34 3.3 3 5 C1.68 5 0.36 5 -1 5 C-1 5.99 -1 6.98 -1 8 C4.4185766 8.22577402 8.77487721 7.46670113 14 6 C12.5 8.5625 12.5 8.5625 10 11 C7.12271746 11.15374792 4.85446858 10.61846819 2 10 C2.33 11.32 2.66 12.64 3 14 C2.01 14.495 2.01 14.495 1 15 C-2.2685466 9.77032543 -2.18592973 6.83082118 -1 1 C-0.67 0.67 -0.34 0.34 0 0 Z " fill="#D1D1C7" transform="translate(130,117)"/>
<path d="M0 0 C0.99 0 1.98 0 3 0 C2.9375 2.1875 2.9375 2.1875 2 5 C0.28561215 6.48271382 -1.48872719 7.68040829 -3.40625 8.88671875 C-5.16061772 9.92360931 -5.16061772 9.92360931 -6 12 C-9.3 11.67 -12.6 11.34 -16 11 C-16 10.34 -16 9.68 -16 9 C-15.16855469 8.81824219 -14.33710937 8.63648437 -13.48046875 8.44921875 C-12.39378906 8.19785156 -11.30710937 7.94648437 -10.1875 7.6875 C-8.56908203 7.32205078 -8.56908203 7.32205078 -6.91796875 6.94921875 C-4.01246943 6.00405632 -2.79471293 5.41481308 -1 3 C-0.67 2.01 -0.34 1.02 0 0 Z " fill="#414337" transform="translate(131,105)"/>
<path d="M0 0 C0.99 0 1.98 0 3 0 C3 0.66 3 1.32 3 2 C4.670625 1.9690625 4.670625 1.9690625 6.375 1.9375 C10 2 10 2 12 3 C12.99 3.33 13.98 3.66 15 4 C14.01 4.495 14.01 4.495 13 5 C13.33 5.66 13.66 6.32 14 7 C11.69 7 9.38 7 7 7 C6.67 7.99 6.34 8.98 6 10 C3 6.25 3 6.25 3 4 C2.34 4 1.68 4 1 4 C0.67 2.68 0.34 1.36 0 0 Z " fill="#DEDED5" transform="translate(123,160)"/>
<path d="M0 0 C7.75 -0.125 7.75 -0.125 10 1 C10.12375 1.598125 10.2475 2.19625 10.375 2.8125 C11.20055523 5.70194332 12.80351643 7.01607936 15 9 C14.29488281 8.69320312 13.58976563 8.38640625 12.86328125 8.0703125 C9.95734427 6.98405502 7.24245848 6.3902942 4.1875 5.875 C3.21167969 5.70742187 2.23585937 5.53984375 1.23046875 5.3671875 C0.49441406 5.24601563 -0.24164063 5.12484375 -1 5 C-0.67 3.35 -0.34 1.7 0 0 Z " fill="#313726" transform="translate(144,144)"/>
<path d="M0 0 C1.37562854 1.28965176 2.70766393 2.62689293 4 4 C4 4.66 4 5.32 4 6 C7.37097383 7.49821059 9.20442119 8 13 8 C13 9.65 13 11.3 13 13 C8.27775484 11.46527032 3.64144669 9.76054874 -1 8 C-0.4740625 7.13375 -0.4740625 7.13375 0.0625 6.25 C1.14917407 3.64198224 0.93065133 2.60582371 0 0 Z " fill="#CED0C4" transform="translate(145,134)"/>
<path d="M0 0 C3.52530726 1.01160991 6.74364265 2.31929943 10 4 C9.01 4.33 8.02 4.66 7 5 C6.34 4.67 5.68 4.34 5 4 C4.67 4.66 4.34 5.32 4 6 C3.4225 5.525625 2.845 5.05125 2.25 4.5625 C-2.82239008 1.04000689 -8.50381801 1.63691898 -14.4375 2.5 C-15.283125 2.665 -16.12875 2.83 -17 3 C-13.1362741 -2.22087693 -5.77611796 -0.58313624 0 0 Z " fill="#64655A" transform="translate(152,109)"/>
<path d="M0 0 C1.32257813 0.33064453 1.32257813 0.33064453 2.671875 0.66796875 C3.56390625 0.88066406 4.4559375 1.09335938 5.375 1.3125 C6.05046875 1.49167969 6.7259375 1.67085938 7.421875 1.85546875 C7.751875 4.16546875 8.081875 6.47546875 8.421875 8.85546875 C7.84179688 8.50613281 7.26171875 8.15679687 6.6640625 7.796875 C2.24918056 5.22516984 -1.37754063 3.2555137 -6.578125 2.85546875 C-4.25803322 0.703421 -3.22784704 -0.18095506 0 0 Z " fill="#434639" transform="translate(130.578125,72.14453125)"/>
<path d="M0 0 C2.50037734 2.17424117 3.43628586 3.73045798 4 7 C2.35 7.33 0.7 7.66 -1 8 C-1 7.34 -1 6.68 -1 6 C-1.99 5.67 -2.98 5.34 -4 5 C-3 2 -3 2 0 0 Z " fill="#F3F4EA" transform="translate(143,133)"/>
<path d="M0 0 C0.66 0 1.32 0 2 0 C2 0.66 2 1.32 2 2 C3.65 1.67 5.3 1.34 7 1 C7 1.99 7 2.98 7 4 C8.32 4.33 9.64 4.66 11 5 C6.38 5 1.76 5 -3 5 C-2.01 3.35 -1.02 1.7 0 0 Z " fill="#404335" transform="translate(105,162)"/>
<path d="M0 0 C0.99 0 1.98 0 3 0 C3 0.66 3 1.32 3 2 C3.66 2 4.32 2 5 2 C4.6875 3.875 4.6875 3.875 4 6 C3.01 6.66 2.02 7.32 1 8 C0.01 7.67 -0.98 7.34 -2 7 C-1.34 4.69 -0.68 2.38 0 0 Z " fill="#45473A" transform="translate(148,154)"/>
<path d="M0 0 C0.33 1.65 0.66 3.3 1 5 C0.01 5.495 0.01 5.495 -1 6 C-2.11634152 7.65051288 -2.11634152 7.65051288 -3.125 9.5625 C-4.053125 11.2640625 -4.053125 11.2640625 -5 13 C-5.66 12.67 -6.32 12.34 -7 12 C-7 11.01 -7 10.02 -7 9 C-5.66666667 7.66666667 -4.33333333 6.33333333 -3 5 C-2.2127322 2.8618034 -2.2127322 2.8618034 -2 1 C-3.98 1 -5.96 1 -8 1 C-8 0.67 -8 0.34 -8 0 C-4.71303767 -0.79953138 -3.28976808 -1.09658936 0 0 Z " fill="#DDDED3" transform="translate(152,112)"/>
<path d="M0 0 C0.99 0.33 1.98 0.66 3 1 C-0.32850747 4.59478807 -3.98971331 7.22364768 -8 10 C-8 6 -8 6 -6.35546875 4.26171875 C-5.64003906 3.74222656 -4.92460937 3.22273438 -4.1875 2.6875 C-3.47980469 2.15511719 -2.77210938 1.62273437 -2.04296875 1.07421875 C-1.36878906 0.71972656 -0.69460937 0.36523438 0 0 Z " fill="#E0E2D5" transform="translate(134,108)"/>
<path d="M0 0 C1.1875 1.5625 1.1875 1.5625 2 4 C0.55884822 8.56364729 -0.80887721 11.54313492 -5 14 C-4.690625 13.154375 -4.38125 12.30875 -4.0625 11.4375 C-2.88872686 7.98229124 -2.88872686 7.98229124 -2.5 4.1875 C-2.335 3.135625 -2.17 2.08375 -2 1 C-1.34 0.67 -0.68 0.34 0 0 Z " fill="#45483A" transform="translate(167,165)"/>
<path d="M0 0 C0.66 2.97 1.32 5.94 2 9 C1.34 8.67 0.68 8.34 0 8 C0 7.34 0 6.68 0 6 C-1.65 5.67 -3.3 5.34 -5 5 C-5 3.68 -5 2.36 -5 1 C-2 0 -2 0 0 0 Z " fill="#F1EFE7" transform="translate(118,161)"/>
<path d="M0 0 C5.86809507 0.52393706 10.54873741 1.76108858 16 4 C15.01 4.33 14.02 4.66 13 5 C12.67 5.66 12.34 6.32 12 7 C11.319375 6.566875 10.63875 6.13375 9.9375 5.6875 C6.6953022 3.82496084 3.45513711 2.42270352 0 1 C0 0.67 0 0.34 0 0 Z " fill="#505146" transform="translate(132,127)"/>
<path d="M0 0 C3.465 1.485 3.465 1.485 7 3 C6.67 4.65 6.34 6.3 6 8 C5.67 7.01 5.34 6.02 5 5 C4.34 5 3.68 5 3 5 C3 4.34 3 3.68 3 3 C0.00667261 3.9977758 -0.94766315 4.7522025 -3 7 C-3 5.68 -3 4.36 -3 3 C-2.01 2.67 -1.02 2.34 0 2 C0 1.34 0 0.68 0 0 Z " fill="#E3E4D8" transform="translate(148,151)"/>
<path d="M0 0 C0.99 0 1.98 0 3 0 C3.66 1.32 4.32 2.64 5 4 C5.99 4 6.98 4 8 4 C8 4.66 8 5.32 8 6 C7.34 6 6.68 6 6 6 C6 6.66 6 7.32 6 8 C5.34 8 4.68 8 4 8 C3.34 7.34 2.68 6.68 2 6 C1.34 5.67 0.68 5.34 0 5 C0 3.35 0 1.7 0 0 Z " fill="#303424" transform="translate(126,131)"/>
<path d="M0 0 C2.64 0 5.28 0 8 0 C6.515 1.98 6.515 1.98 5 4 C4.67 3.67 4.34 3.34 4 3 C3.67 5.31 3.34 7.62 3 10 C2.67 10 2.34 10 2 10 C1.855625 8.906875 1.71125 7.81375 1.5625 6.6875 C1.11711896 3.06877013 1.11711896 3.06877013 0 0 Z " fill="#444439" transform="translate(103,94)"/>
<path d="M0 0 C-0.33 0.99 -0.66 1.98 -1 3 C-3.97 2.505 -3.97 2.505 -7 2 C-7.33 2.66 -7.66 3.32 -8 4 C-8 2.35 -8 0.7 -8 -1 C-3.375 -2.25 -3.375 -2.25 0 0 Z " fill="#FCFAF4" transform="translate(122,120)"/>
<path d="M0 0 C2.37948772 0.17625835 3.70225849 0.69719773 5.37890625 2.40234375 C6.62115486 3.90649092 7.81376056 5.45129851 9 7 C5.85262818 6.30058404 2.97411124 5.23921302 0 4 C0 2.68 0 1.36 0 0 Z " fill="#EEEEE3" transform="translate(151,112)"/>
<path d="M0 0 C0.99 0 1.98 0 3 0 C3 0.66 3 1.32 3 2 C3.66 2 4.32 2 5 2 C5.66 3.98 6.32 5.96 7 8 C6.01 8 5.02 8 4 8 C0 2.74285714 0 2.74285714 0 0 Z " fill="#313326" transform="translate(145,132)"/>
<path d="M0 0 C1.32 0 2.64 0 4 0 C3.67 1.65 3.34 3.3 3 5 C1.68 5 0.36 5 -1 5 C-0.67 3.35 -0.34 1.7 0 0 Z " fill="#BBBBB1" transform="translate(130,117)"/>
<path d="M0 0 C0.66 0.33 1.32 0.66 2 1 C1.21625 1.763125 0.4325 2.52625 -0.375 3.3125 C-3.07257717 5.90891805 -3.07257717 5.90891805 -5 9 C-5.66 8.67 -6.32 8.34 -7 8 C-5.50902342 4.2047869 -3.24299151 2.38957269 0 0 Z " fill="#636359" transform="translate(133,112)"/>
<path d="M0 0 C0.33 0.66 0.66 1.32 1 2 C1.99 2.33 2.98 2.66 4 3 C3.01 4.485 3.01 4.485 2 6 C-0.625 6.1875 -0.625 6.1875 -3 6 C-2 4 -1 2 0 0 Z " fill="#494B3E" transform="translate(82,160)"/>
<path d="M0 0 C1.32 0 2.64 0 4 0 C5.75 2 5.75 2 7 4 C6.67 4.66 6.34 5.32 6 6 C3.69 5.01 1.38 4.02 -1 3 C-0.67 2.01 -0.34 1.02 0 0 Z " fill="#ECEBE1" transform="translate(149,129)"/>
<path d="M0 0 C0.99 0 1.98 0 3 0 C2.75 2.375 2.75 2.375 2 5 C-0.0625 6.3125 -0.0625 6.3125 -2 7 C-2 3.89448334 -1.4606285 2.64738916 0 0 Z " fill="#6C6F61" transform="translate(131,105)"/>
<path d="M0 0 C0.66 0 1.32 0 2 0 C2.33 1.98 2.66 3.96 3 6 C3.66 6 4.32 6 5 6 C4.67 6.66 4.34 7.32 4 8 C2.35 7.01 0.7 6.02 -1 5 C-0.67 3.35 -0.34 1.7 0 0 Z " fill="#4D4E43" transform="translate(121,158)"/>
<path d="M0 0 C0.99 0.33 1.98 0.66 3 1 C2.67 1.99 2.34 2.98 2 4 C1.01 3.67 0.02 3.34 -1 3 C-0.67 2.01 -0.34 1.02 0 0 Z M-4 4 C-2.68 4.33 -1.36 4.66 0 5 C-0.33 5.66 -0.66 6.32 -1 7 C-1.99 6.67 -2.98 6.34 -4 6 C-4 5.34 -4 4.68 -4 4 Z " fill="#E6E7DD" transform="translate(140,131)"/>
<path d="M0 0 C0.33 0 0.66 0 1 0 C1 3.63 1 7.26 1 11 C-2 8 -2 8 -3 5 C-2.34 4.67 -1.68 4.34 -1 4 C-0.34786708 1.97536745 -0.34786708 1.97536745 0 0 Z " fill="#545649" transform="translate(142,76)"/>
<path d="M0 0 C3.3 0.33 6.6 0.66 10 1 C9.34 2.65 8.68 4.3 8 6 C7.236875 5.38125 6.47375 4.7625 5.6875 4.125 C3.00374191 1.94402948 3.00374191 1.94402948 0 0 Z " fill="#E4E3DA" transform="translate(115,116)"/>
<path d="M0 0 C6.875 2.75 6.875 2.75 8 5 C5.69 4.67 3.38 4.34 1 4 C0.67 2.68 0.34 1.36 0 0 Z " fill="#45453B" transform="translate(133,177)"/>
<path d="M0 0 C2.31 0 4.62 0 7 0 C7.66 1.32 8.32 2.64 9 4 C6.03 3.01 3.06 2.02 0 1 C0 0.67 0 0.34 0 0 Z " fill="#55584A" transform="translate(144,149)"/>
<path d="M0 0 C1.98 0.495 1.98 0.495 4 1 C4 1.66 4 2.32 4 3 C4.66 3.33 5.32 3.66 6 4 C2.98968256 4.93423645 2.13349732 5.04449911 -1 4 C-0.67 2.68 -0.34 1.36 0 0 Z " fill="#4C5142" transform="translate(138,138)"/>
<path d="M0 0 C1.98 0 3.96 0 6 0 C5.67 1.65 5.34 3.3 5 5 C4.34 5 3.68 5 3 5 C3 4.34 3 3.68 3 3 C2.01 2.67 1.02 2.34 0 2 C0 1.34 0 0.68 0 0 Z " fill="#3A3D30" transform="translate(144,113)"/>
<path d="M0 0 C3.26460973 1.80412643 4.88929795 2.83394693 7 6 C5.68 6.33 4.36 6.66 3 7 C2.67 5.35 2.34 3.7 2 2 C1.34 2 0.68 2 0 2 C0 1.34 0 0.68 0 0 Z " fill="#4E4E44" transform="translate(148,132)"/>
<path d="M0 0 C2 1.8125 2 1.8125 4 4 C4 4.99 4 5.98 4 7 C2.68 6.67 1.36 6.34 0 6 C0 4.02 0 2.04 0 0 Z " fill="#E4E4DA" transform="translate(137,80)"/>
<path d="M0 0 C0.66 0 1.32 0 2 0 C2 0.66 2 1.32 2 2 C2.66 2.33 3.32 2.66 4 3 C3.01 4.32 2.02 5.64 1 7 C1 5.68 1 4.36 1 3 C0.01 2.67 -0.98 2.34 -2 2 C-1.34 1.34 -0.68 0.68 0 0 Z " fill="#F6F6EC" transform="translate(133,114)"/>
<path d="M0 0 C0.33 0.99 0.66 1.98 1 3 C0.67 3.66 0.34 4.32 0 5 C-0.99 5 -1.98 5 -3 5 C-3 4.34 -3 3.68 -3 3 C-4.32 3.33 -5.64 3.66 -7 4 C-7 3.34 -7 2.68 -7 2 C-4.69 2 -2.38 2 0 2 C0 1.34 0 0.68 0 0 Z " fill="#FCFBF3" transform="translate(128,103)"/>
</svg>
